<?xml version="1.0" standalone="no"?>
<!DOCTYPE svg PUBLIC "-//W3C//DTD SVG 20010904//EN"
 "http://www.w3.org/TR/2001/REC-SVG-20010904/DTD/svg10.dtd">
<svg version="1.0" xmlns="http://www.w3.org/2000/svg"
 width="700.000000pt" height="700.000000pt" viewBox="0 0 700.000000 700.000000"
 preserveAspectRatio="xMidYMid meet">
<metadata>
Created by potrace 1.11, written by Peter Selinger 2001-2013
</metadata>
<g transform="translate(0.000000,700.000000) scale(0.100000,-0.100000)"
fill="#000000" stroke="none">
<path d="M1042 6639 c-84 -14 -221 -70 -299 -122 -122 -81 -232 -216 -288
-354 -58 -144 -55 9 -55 -2638 0 -2174 2 -2434 16 -2503 63 -306 300 -543 606
-606 69 -14 325 -16 2468 -16 2143 0 2399 2 2468 16 251 51 464 226 561 459
65 156 61 -25 61 2646 0 2670 4 2499 -59 2651 -88 208 -255 361 -481 440 l-95
33 -2425 1 c-1376 1 -2448 -2 -2478 -7z m478 -1839 c0 -1761 -4 -1642 57
-1690 54 -42 94 -53 223 -59 l125 -6 0 -1200 0 -1200 -385 -3 c-442 -3 -484 1
-602 60 -144 72 -250 210 -283 365 -22 102 -22 4814 0 4916 33 157 143 296
289 367 104 51 149 57 384 59 l192 1 0 -1610z m1480 -17 l5 -1622 34 -35 c54
-56 121 -76 251 -76 l110 0 0 -1199 0 -1198 -52 -7 c-29 -3 -315 -6 -635 -6
l-583 0 0 1204 0 1204 113 4 c101 3 117 6 165 32 30 17 62 44 75 65 l22 36 3
1613 2 1612 243 -2 242 -3 5 -1622z m1500 24 l0 -1604 23 -43 c16 -31 38 -52
77 -74 51 -29 63 -31 173 -35 l117 -3 0 -1204 0 -1205 -638 2 -639 1 -6 457
c-4 251 -7 789 -7 1197 l0 741 94 7 c131 9 192 29 243 81 l43 42 0 1615 c0
888 3 1618 7 1621 3 4 120 7 260 7 l253 0 0 -1603z m1390 1592 c186 -29 359
-176 422 -357 l23 -67 0 -2450 0 -2450 -26 -72 c-67 -184 -231 -322 -417 -353
-43 -7 -199 -10 -432 -8 l-365 3 0 1200 0 1200 120 6 c123 6 165 17 218 59 61
48 57 -71 57 1690 l0 1610 168 0 c92 0 196 -5 232 -11z"/>
</g>
</svg>
